# xmcd
#
# Track frame offsets:
#	150
#	19532
#	33992
#	55255
#	79017
#	96615
#	129492
#
# Disc length: 2044 seconds
#
# Revision: 1
# Processed by: cddbd v1.4PL0 Copyright (c) Steve Scherf et al.
# Submitted via: EasyCDDAExtractor 5.0.6
#
DISCID=5207fa07
DTITLE=Henderson, Michael - Do It All
DYEAR=1900
DGENRE=
TTITLE0=playing on the real thing
TTITLE1=everybody wants to know why
TTITLE2=to be loved
TTITLE3=do it all
TTITLE4=in the summertime
TTITLE5=wait until the rain
TTITLE6=riding
EXTD=
EXTT0=
EXTT1=
EXTT2=
EXTT3=
EXTT4=
EXTT5=
EXTT6=
PLAYORDER=
